<svg width="100" height="100" fill="#F1E0AC" viewBox="0 0 700 700" xmlns="http://www.w3.org/2000/svg" xmlns:xlink="http://www.w3.org/1999/xlink"><path d="m585.97 327.44-63.566-23.832a22.763 22.763 0 0 1-10.637-8.313 22.752 22.752 0 0 1-4.047-12.879v-7.074.004a108.384 108.384 0 0 0 32.48-78.934 78.791 78.791 0 0 0-39.582-67.672 78.775 78.775 0 0 0-78.395 0 78.79 78.79 0 0 0-39.582 67.672 108.392 108.392 0 0 0 32.48 78.961v7.051a22.73 22.73 0 0 1-4.05 12.871 22.757 22.757 0 0 1-10.634 8.313l-32.93 12.32-10.64-3.993h.003a30.962 30.962 0 0 1-14.488-11.32 30.964 30.964 0 0 1-5.52-17.539v-9.703a136.496 136.496 0 0 0 41.489-100.17c0-35.277-18.82-67.879-49.371-85.516a98.738 98.738 0 0 0-98.746 0c-30.551 17.637-49.371 50.238-49.371 85.516a136.493 136.493 0 0 0 41.535 100.21v9.696-.004c-.024 6.27-1.95 12.387-5.524 17.539s-8.625 9.097-14.492 11.32l-81.199 30.465v-.004a57.546 57.546 0 0 0-26.93 21.027A57.546 57.546 0 0 0 84 396.042v63.723a25.804 25.804 0 0 0 7.555 18.203 25.814 25.814 0 0 0 18.207 7.554h339.68a25.808 25.808 0 0 0 18.203-7.558 25.795 25.795 0 0 0 7.555-18.2v-17.401h119.12a21.695 21.695 0 0 0 21.675-21.672v-49.906a46.492 46.492 0 0 0-30.031-43.34zM396.45 196.4h-.004a64.969 64.969 0 0 1 32.48-56.258 64.971 64.971 0 0 1 64.961 0 64.965 64.965 0 0 1 32.48 56.258c0 45.098-30.363 84.656-64.96 84.656s-64.962-39.547-64.962-84.645zm-201.77-23.211a84.93 84.93 0 0 1 42.465-73.551 84.927 84.927 0 0 1 84.93 0 84.93 84.93 0 0 1 42.465 73.551c0 58.645-39.688 110.09-84.93 110.09s-84.93-51.438-84.93-110.07zm266.76 286.57c-.012 6.606-5.363 11.957-11.969 11.965h-339.71c-6.602-.02-11.941-5.367-11.945-11.965v-63.723A43.63 43.63 0 0 1 126 355.36l81.227-30.465v.004a44.858 44.858 0 0 0 20.707-16.062 44.856 44.856 0 0 0 8.195-24.887 78.387 78.387 0 0 0 43.484 13.164 78.385 78.385 0 0 0 43.484-13.164 44.83 44.83 0 0 0 8.191 24.902 44.828 44.828 0 0 0 20.715 16.066l81.2 30.445v.004a43.618 43.618 0 0 1 20.44 15.934 43.622 43.622 0 0 1 7.797 24.715zm140.77-39.078h-.004a7.84 7.84 0 0 1-7.84 7.84h-119.14v-32.504a57.515 57.515 0 0 0-10.242-32.578 57.514 57.514 0 0 0-26.906-21.031l-50.883-19.078 18.105-6.79v.005a36.549 36.549 0 0 0 16.152-12.141 36.563 36.563 0 0 0 7.242-18.863 61.94 61.94 0 0 0 65.45 0 36.555 36.555 0 0 0 23.395 31.02l63.566 23.832a32.619 32.619 0 0 1 15.266 11.926 32.587 32.587 0 0 1 5.812 18.477z"/><use x="70" y="644" xlink:href="#j"/><use x="90.551" y="644" xlink:href="#b"/><use x="104.359" y="644" xlink:href="#a"/><use x="123.348" y="644" xlink:href="#d"/><use x="142.242" y="644" xlink:href="#c"/><use x="155.629" y="644" xlink:href="#a"/><use x="174.617" y="644" xlink:href="#f"/><use x="204.41" y="644" xlink:href="#m"/><use x="224.453" y="644" xlink:href="#l"/><use x="252.453" y="644" xlink:href="#k"/><use x="273.793" y="644" xlink:href="#i"/><use x="283.391" y="644" xlink:href="#b"/><use x="297.199" y="644" xlink:href="#h"/><use x="313.797" y="644" xlink:href="#v"/><use x="332.418" y="644" xlink:href="#g"/><use x="352.352" y="644" xlink:href="#a"/><use x="371.344" y="644" xlink:href="#d"/><use x="390.234" y="644" xlink:href="#f"/><use x="420.027" y="644" xlink:href="#j"/><use x="440.578" y="644" xlink:href="#b"/><use x="454.383" y="644" xlink:href="#a"/><use x="473.375" y="644" xlink:href="#d"/><use x="492.27" y="644" xlink:href="#c"/><use x="505.656" y="644" xlink:href="#i"/><use x="515.25" y="644" xlink:href="#u"/><use x="533.504" y="644" xlink:href="#a"/><use x="70" y="672" xlink:href="#t"/><use x="82.184" y="672" xlink:href="#b"/><use x="95.992" y="672" xlink:href="#e"/><use x="115.227" y="672" xlink:href="#s"/><use x="154.152" y="672" xlink:href="#c"/><use x="167.535" y="672" xlink:href="#g"/><use x="187.469" y="672" xlink:href="#a"/><use x="216.207" y="672" xlink:href="#r"/><use x="239.641" y="672" xlink:href="#e"/><use x="258.879" y="672" xlink:href="#q"/><use x="278.813" y="672" xlink:href="#p"/><use x="308.492" y="672" xlink:href="#o"/><use x="329.016" y="672" xlink:href="#b"/><use x="342.82" y="672" xlink:href="#e"/><use x="362.059" y="672" xlink:href="#n"/><use x="371.656" y="672" xlink:href="#a"/><use x="390.648" y="672" xlink:href="#h"/><use x="407.242" y="672" xlink:href="#c"/></svg>