<?xml version="1.0" encoding="UTF-8"?>
<svg width="100px" height="100px" fill='#F1E0AC' version="1.1" viewBox="0 0 700 700" xmlns="http://www.w3.org/2000/svg" xmlns:xlink="http://www.w3.org/1999/xlink">
 <g>
  <path d="m585.97 327.44-63.566-23.832c-4.3047-1.6289-8.0117-4.5312-10.637-8.3125-2.6211-3.7852-4.0312-8.2734-4.0469-12.879v-7.0742 0.003906c21.168-20.762 32.906-49.289 32.48-78.934-0.23828-27.984-15.305-53.746-39.582-67.672-24.277-13.926-54.117-13.926-78.395 0-24.277 13.926-39.344 39.688-39.582 67.672-0.43359 29.656 11.309 58.195 32.48 78.961v7.0508c-0.015625 4.6016-1.4297 9.0898-4.0508 12.871-2.6211 3.7812-6.3281 6.6797-10.633 8.3125l-32.93 12.32-10.641-3.9922h0.003906c-5.8633-2.2188-10.918-6.168-14.488-11.32-3.5742-5.1523-5.4961-11.266-5.5195-17.539v-9.7031c27.066-26.23 42.082-62.484 41.488-100.17 0-35.277-18.82-67.879-49.371-85.516-30.551-17.641-68.191-17.641-98.746 0-30.551 17.637-49.371 50.238-49.371 85.516-0.59375 37.707 14.441 73.977 41.535 100.21v9.6953-0.003907c-0.023438 6.2695-1.9492 12.387-5.5234 17.539s-8.625 9.0977-14.492 11.32l-81.199 30.465v-0.003906c-10.898 4.1211-20.289 11.453-26.93 21.027-6.6367 9.5742-10.215 20.938-10.254 32.59v63.723c0.011719 6.8281 2.7266 13.375 7.5547 18.203 4.832 4.8281 11.375 7.543 18.207 7.5547h339.68c6.8281-0.011719 13.375-2.7305 18.203-7.5586 4.8281-4.8281 7.543-11.371 7.5547-18.199v-17.402h119.12c5.7461-0.003906 11.254-2.2891 15.32-6.3516 4.0625-4.0625 6.3477-9.5703 6.3555-15.32v-49.906c-0.027344-9.4141-2.9141-18.602-8.2773-26.34-5.3633-7.7383-12.949-13.668-21.754-17zm-189.52-131.04h-0.003907c0-23.207 12.383-44.652 32.48-56.258 20.098-11.602 44.863-11.602 64.961 0 20.098 11.605 32.48 33.051 32.48 56.258 0 45.098-30.363 84.656-64.961 84.656s-64.961-39.547-64.961-84.645zm-201.77-23.211c0-30.344 16.188-58.379 42.465-73.551 26.277-15.172 58.652-15.172 84.93 0 26.277 15.172 42.465 43.207 42.465 73.551 0 58.645-39.688 110.09-84.93 110.09s-84.93-51.438-84.93-110.07zm266.76 286.57c-0.011718 6.6055-5.3633 11.957-11.969 11.965h-339.71c-6.6016-0.019531-11.941-5.3672-11.945-11.965v-63.723c0.027344-8.8359 2.7344-17.457 7.7656-24.719 5.0352-7.2656 12.152-12.828 20.418-15.957l81.227-30.465v0.003906c8.3477-3.1758 15.559-8.7656 20.707-16.062 5.1484-7.293 8-15.961 8.1953-24.887 12.879 8.5859 28.008 13.164 43.484 13.164 15.477 0 30.605-4.5781 43.484-13.164 0.1875 8.9336 3.043 17.605 8.1914 24.902 5.1523 7.3008 12.363 12.895 20.715 16.066l81.199 30.445v0.003906c8.2734 3.1172 15.398 8.6758 20.441 15.934 5.043 7.2578 7.7617 15.879 7.7969 24.715zm140.77-39.078h-0.003906c0 4.3281-3.5078 7.8398-7.8398 7.8398h-119.14v-32.504c-0.035156-11.645-3.6094-23.004-10.242-32.578-6.6328-9.5742-16.016-16.906-26.906-21.031l-50.883-19.078 18.105-6.7891v0.003906c6.418-2.4492 12.016-6.6562 16.152-12.141 4.1367-5.4805 6.6484-12.02 7.2422-18.863 9.8242 6.1133 21.16 9.3516 32.727 9.3516s22.902-3.2383 32.723-9.3516c0.58984 6.8477 3.0977 13.391 7.2344 18.875 4.1406 5.4883 9.7422 9.6953 16.16 12.145l63.566 23.832c6.1797 2.3398 11.504 6.4961 15.266 11.926 3.7656 5.4297 5.793 11.871 5.8125 18.477z"/>
  <use x="70" y="644" xlink:href="#j"/>
  <use x="90.550781" y="644" xlink:href="#b"/>
  <use x="104.359375" y="644" xlink:href="#a"/>
  <use x="123.347656" y="644" xlink:href="#d"/>
  <use x="142.242188" y="644" xlink:href="#c"/>
  <use x="155.628906" y="644" xlink:href="#a"/>
  <use x="174.617188" y="644" xlink:href="#f"/>
  <use x="204.410156" y="644" xlink:href="#m"/>
  <use x="224.453125" y="644" xlink:href="#l"/>
  <use x="252.453125" y="644" xlink:href="#k"/>
  <use x="273.792969" y="644" xlink:href="#i"/>
  <use x="283.390625" y="644" xlink:href="#b"/>
  <use x="297.199219" y="644" xlink:href="#h"/>
  <use x="313.796875" y="644" xlink:href="#v"/>
  <use x="332.417969" y="644" xlink:href="#g"/>
  <use x="352.351562" y="644" xlink:href="#a"/>
  <use x="371.34375" y="644" xlink:href="#d"/>
  <use x="390.234375" y="644" xlink:href="#f"/>
  <use x="420.027344" y="644" xlink:href="#j"/>
  <use x="440.578125" y="644" xlink:href="#b"/>
  <use x="454.382812" y="644" xlink:href="#a"/>
  <use x="473.375" y="644" xlink:href="#d"/>
  <use x="492.269531" y="644" xlink:href="#c"/>
  <use x="505.65625" y="644" xlink:href="#i"/>
  <use x="515.25" y="644" xlink:href="#u"/>
  <use x="533.503906" y="644" xlink:href="#a"/>
  <use x="70" y="672" xlink:href="#t"/>
  <use x="82.183594" y="672" xlink:href="#b"/>
  <use x="95.992188" y="672" xlink:href="#e"/>
  <use x="115.226562" y="672" xlink:href="#s"/>
  <use x="154.152344" y="672" xlink:href="#c"/>
  <use x="167.535156" y="672" xlink:href="#g"/>
  <use x="187.46875" y="672" xlink:href="#a"/>
  <use x="216.207031" y="672" xlink:href="#r"/>
  <use x="239.640625" y="672" xlink:href="#e"/>
  <use x="258.878906" y="672" xlink:href="#q"/>
  <use x="278.8125" y="672" xlink:href="#p"/>
  <use x="308.492188" y="672" xlink:href="#o"/>
  <use x="329.015625" y="672" xlink:href="#b"/>
  <use x="342.820312" y="672" xlink:href="#e"/>
  <use x="362.058594" y="672" xlink:href="#n"/>
  <use x="371.65625" y="672" xlink:href="#a"/>
  <use x="390.648438" y="672" xlink:href="#h"/>
  <use x="407.242188" y="672" xlink:href="#c"/>
 </g>
</svg>
