<svg xmlns="http://www.w3.org/2000/svg" style="margin:auto;background:0 0;display:block;shape-rendering:auto" width="197" height="197" viewBox="0 0 100 100" preserveAspectRatio="xMidYMid"><rect x="48.5" y="26" rx="0" ry="0" width="2.5" height="14" fill="#f1e0ac"><animate attributeName="opacity" values="1;0" keyTimes="0;1" dur="1.0204081632653061s" begin="-0.935374149659864s" repeatCount="indefinite"/></rect><rect x="48.5" y="26" rx="0" ry="0" width="2.5" height="14" fill="#f1e0ac" transform="rotate(30 50 50)"><animate attributeName="opacity" values="1;0" keyTimes="0;1" dur="1.0204081632653061s" begin="-0.8503401360544218s" repeatCount="indefinite"/></rect><rect x="48.5" y="26" rx="0" ry="0" width="2.5" height="14" fill="#f1e0ac" transform="rotate(60 50 50)"><animate attributeName="opacity" values="1;0" keyTimes="0;1" dur="1.0204081632653061s" begin="-0.7653061224489796s" repeatCount="indefinite"/></rect><rect x="48.5" y="26" rx="0" ry="0" width="2.5" height="14" fill="#f1e0ac" transform="rotate(90 50 50)"><animate attributeName="opacity" values="1;0" keyTimes="0;1" dur="1.0204081632653061s" begin="-0.6802721088435374s" repeatCount="indefinite"/></rect><rect x="48.5" y="26" rx="0" ry="0" width="2.5" height="14" fill="#f1e0ac" transform="rotate(120 50 50)"><animate attributeName="opacity" values="1;0" keyTimes="0;1" dur="1.0204081632653061s" begin="-0.5952380952380952s" repeatCount="indefinite"/></rect><rect x="48.5" y="26" rx="0" ry="0" width="2.5" height="14" fill="#f1e0ac" transform="rotate(150 50 50)"><animate attributeName="opacity" values="1;0" keyTimes="0;1" dur="1.0204081632653061s" begin="-0.5102040816326531s" repeatCount="indefinite"/></rect><rect x="48.5" y="26" rx="0" ry="0" width="2.5" height="14" fill="#f1e0ac" transform="rotate(180 50 50)"><animate attributeName="opacity" values="1;0" keyTimes="0;1" dur="1.0204081632653061s" begin="-0.4251700680272109s" repeatCount="indefinite"/></rect><rect x="48.5" y="26" rx="0" ry="0" width="2.5" height="14" fill="#f1e0ac" transform="rotate(210 50 50)"><animate attributeName="opacity" values="1;0" keyTimes="0;1" dur="1.0204081632653061s" begin="-0.3401360544217687s" repeatCount="indefinite"/></rect><rect x="48.5" y="26" rx="0" ry="0" width="2.5" height="14" fill="#f1e0ac" transform="rotate(240 50 50)"><animate attributeName="opacity" values="1;0" keyTimes="0;1" dur="1.0204081632653061s" begin="-0.25510204081632654s" repeatCount="indefinite"/></rect><rect x="48.5" y="26" rx="0" ry="0" width="2.5" height="14" fill="#f1e0ac" transform="rotate(270 50 50)"><animate attributeName="opacity" values="1;0" keyTimes="0;1" dur="1.0204081632653061s" begin="-0.17006802721088435s" repeatCount="indefinite"/></rect><rect x="48.5" y="26" rx="0" ry="0" width="2.5" height="14" fill="#f1e0ac" transform="rotate(300 50 50)"><animate attributeName="opacity" values="1;0" keyTimes="0;1" dur="1.0204081632653061s" begin="-0.08503401360544217s" repeatCount="indefinite"/></rect><rect x="48.5" y="26" rx="0" ry="0" width="2.5" height="14" fill="#f1e0ac" transform="rotate(330 50 50)"><animate attributeName="opacity" values="1;0" keyTimes="0;1" dur="1.0204081632653061s" begin="0s" repeatCount="indefinite"/></rect></svg>